<?xml version="1.0" encoding="utf-8"?>
<!-- Svg Vector Icons : http://www.onlinewebfonts.com/icon -->
<!DOCTYPE svg PUBLIC "-//W3C//DTD SVG 1.1//EN" "http://www.w3.org/Graphics/SVG/1.1/DTD/svg11.dtd">
<svg version="1.1" xmlns="http://www.w3.org/2000/svg" xmlns:xlink="http://www.w3.org/1999/xlink" x="0px" y="0px" viewBox="0 0 1000 1000" enable-background="new 0 0 1000 1000" xml:space="preserve">
<metadata> Svg Vector Icons : http://www.onlinewebfonts.com/icon </metadata>
<g><g transform="translate(0.000000,512.000000) scale(0.100000,-0.100000)"><path d="M3357.6,5003.3c-369.9-59.4-716.7-216.5-944.8-427.3c-258.7-243.4-371.8-475.3-373.7-770.4c-1.9-270.2,63.2-427.4,302.8-732.1c205-260.6,308.5-463.8,331.5-649.6c9.6-74.7,13.4-157.1,9.6-182.1c-1.9-24.9-28.7-243.4-57.5-484.8l-53.7-438.8l-47.9,65.2c-92,126.5-396.7,413.9-534.7,504c-197.4,130.3-473.3,272.1-866.2,442.7c-184,80.5-375.6,172.5-423.5,203.1c-47.9,30.7-97.7,55.6-109.2,55.6c-78.6,0-124.6-573-80.5-1017.6C586.5,818,851,172.1,1243.9-213c115-113.1,348.8-283.6,387.1-283.6c30.7,1.9,375.6,481,456.1,632.4c47.9,92,70.9,162.9,70.9,212.7c0,151.4-57.5,371.8-147.6,553.8c-74.7,155.2-115,207-262.5,354.5c-126.5,124.6-220.4,199.3-341.1,264.5c-166.7,93.9-195.5,122.7-176.3,176.3c28.7,72.8,80.5,70.9,218.5-3.8c511.7-274,820.2-722.5,871.9-1266.7c21.1-201.2-11.5-272.1-350.7-776.1c-293.2-438.9-458-737.8-500.2-917.9c-44.1-189.7-21.1-571.1,57.5-935.2c270.2-1234.2,1376-2263.2,2723.2-2533.4c300.9-59.4,758.9-59.4,1050.2,1.9c584.5,122.6,1151.7,396.7,1607.8,778c230,191.6,231.9,193.5,141.8,218.5c-352.6,101.6-975.4,139.9-1146,74.7c-42.2-17.2-164.8-63.2-272.1-101.6c-187.8-69-199.3-70.9-245.3-40.2c-53.7,34.5-67.1,126.5-23,161c13.4,11.5,88.2,44.1,166.7,72.8c377.5,134.1,688,329.6,960.1,599.8c199.3,201.2,308.5,348.8,419.7,574.9c82.4,164.8,143.7,343,126.5,362.2c-7.7,5.7-61.3,13.4-122.6,17.3c-116.9,5.7-157.1,34.5-157.1,111.2c0,82.4,61.3,111.1,214.6,101.6c210.8-13.4,394.8-120.7,511.7-297c90-134.1,74.7-235.7-34.5-235.7c-61.3,0-74.7,9.6-143.7,103.5l-55.6,74.7l-51.7-132.2c-63.2-162.9-141.8-318.1-212.7-423.5c-30.7-44.1-55.6-84.3-55.6-88.2s49.8,3.8,111.2,19.2c59.4,13.4,208.9,26.8,329.6,26.8c258.7,1.9,450.4-40.2,666.9-147.5c162.9-78.6,199.3-132.2,149.5-208.9c-42.1-65.2-95.8-61.3-262.5,19.2c-203.1,97.7-385.2,132.2-619,118.8c-107.3-5.8-245.3-24.9-308.5-42.2c-161-44.1-391-155.2-459.9-218.5c-30.7-30.7-116.9-99.6-191.6-155.2c-103.5-76.7-120.7-95.8-76.6-82.4c109.2,28.8,488.7,11.5,699.5-32.6c214.6-44.1,574.9-161,843.2-276c203.1-84.3,343-92,488.7-23c239.6,111.2,392.9,452.3,337.3,751.2c-57.5,312.4-254.9,517.4-573,590.2c-72.8,17.3-107.3,34.5-105.4,51.7c1.9,15.3,24.9,122.7,51.8,237.6c72.8,310.4,99.6,689.9,61.3,868.1c-46,216.5-170.5,456.1-479.1,912.2c-346.9,511.7-375.6,569.2-375.6,753.1c0,373.7,161,743.6,448.4,1027.2c115,113.1,354.5,283.6,494.4,350.7c69,32.6,72.8,32.6,111.2-1.9c55.6-49.8,47.9-101.6-21.1-139.9c-295.1-161-563.4-396.7-684.2-601.7c-90.1-151.4-153.3-345-174.4-532.8c-19.2-176.3-5.7-239.5,84.3-385.2c78.6-126.5,413.9-573,431.2-573c42.2,0,277.9,178.2,402.4,304.7c306.6,310.5,515.5,732.1,640.1,1287.8c72.8,333.4,93.9,573,82.4,963.9c-9.6,341.1-34.5,504-80.5,521.3c-13.4,5.8-65.2-17.2-116.9-47.9c-51.7-32.6-270.2-136.1-486.8-231.9c-716.7-316.2-1054-546.2-1310.8-887.3c-82.4-109.2-69-147.6-137.9,398.6c-86.3,686.1-53.7,826,300.8,1266.7c297.1,369.9,371.8,697.6,239.6,1050.2c-210.8,559.6-914.1,929.4-1688.3,887.3c-115-7.7-314.3-32.6-440.8-55.6c-323.9-59.4-770.4-59.4-1092.3,1.9C3959.4,5011,3533.9,5030.1,3357.6,5003.3z M4070.5,4675.6c201.2-36.4,151.4-63.2-159.1-84.3c-136.1-11.5-182.1-21.1-214.6-53.7c-51.7-46-57.5-138-15.3-199.3c42.2-59.4,130.3-70.9,369.9-46c299,28.8,475.3,67.1,789.5,176.3c607.5,210.8,839.4,258.7,1140.2,239.5c412-28.7,732.1-159.1,969.7-392.9c180.2-180.1,235.7-300.9,235.7-519.3c0-122.6-7.7-162.9-61.3-275.9c-49.8-107.3-103.5-172.5-295.1-364.1c-352.6-348.8-436.9-448.4-507.9-597.9c-88.1-185.9-97.7-251.1-42.1-322c40.2-51.7,47.9-53.7,155.2-42.2c97.7,9.6,111.2,7.7,111.2-23c0-17.3,34.5-291.3,74.7-607.5s72.8-576.8,69-580.7c-1.9-1.9-47.9,11.5-99.7,32.6c-124.6,47.9-481,126.5-743.6,162.9c-937.1,128.4-2286.2,57.5-2857.3-149.5c-72.8-26.8-134.1-44.1-138-40.2c-5.8,3.8,26.8,297,72.8,651.6c59.4,475.3,76.7,672.6,67.1,760.8c-30.7,300.9-138,527-415.9,875.8c-185.9,231.9-216.5,304.7-216.5,519.3c0,162.9,5.7,193.6,55.6,297c141.8,291.3,515.5,523.2,960.1,596C3543.5,4717.8,3875,4710.1,4070.5,4675.6z M3693,214.3c44.1-46,55.6-72.8,55.6-139.9c-1.9-191.6-203.1-276-337.3-141.8c-90.1,90.1-90.1,182.1,0,272.1C3499.4,292.9,3610.6,296.7,3693,214.3z M6126.8,214.3c44.1-46,55.6-72.8,55.6-139.9c-1.9-260.6-362.2-279.8-396.7-21.1c-9.6,74.7-3.8,88.1,57.5,149.5c55.6,55.6,80.5,67.1,147.6,67.1C6053.9,269.9,6082.7,258.4,6126.8,214.3z M5109.2-1044.8c208.9-42.1,461.9-170.5,615.2-312.4c339.2-308.5,425.4-705.2,243.4-1094.2c-84.3-176.3-318.1-406.3-515.5-504c-230-113.1-408.2-153.3-688-153.3c-285.5,0-459.9,40.2-688,159.1c-885.4,459.9-757,1561.8,218.5,1870.4C4557.3-996.8,4812.1-985.3,5109.2-1044.8z"/><path d="M4229.6,1935.2c-295.1-17.2-693.7-63.2-810.6-95.8c-82.4-21.1-111.1-63.2-111.1-157.1c0-80.5,55.6-134.2,139.9-136.1c32.6,0,168.6,15.3,300.9,32.6c655.4,90.1,1701.7,72.8,2313.1-36.4c51.7-9.6,72.8-1.9,120.7,46c93.9,93.9,65.2,210.8-63.2,251c-159,51.7-985,118.8-1402.8,113.1C4601.3,1952.5,4381,1942.9,4229.6,1935.2z"/><path d="M4221.9-1796c-47.9-51.7-70.9-132.2-70.9-247.2c0-124.6,57.5-266.4,115-283.6c122.6-38.3,222.3,184,172.5,389C4402-1780.6,4296.6-1711.7,4221.9-1796z"/><path d="M5160.9-1796c-113.1-124.6-84.3-490.6,42.2-530.8c120.7-38.3,218.5,176.3,174.4,383.3C5344.9-1782.6,5237.6-1709.7,5160.9-1796z"/><path d="M8989.8-2443.7c-30.7-3.8-95.8-13.4-141.8-19.2l-84.3-11.5l115-116.9c61.3-65.2,153.3-166.7,203.1-226.1c97.7-118.8,155.2-141.8,266.4-113.1c103.5,28.7,159,101.6,159,208.9c0,115-46,187.8-149.5,231.9C9275.4-2453.3,9089.5-2430.3,8989.8-2443.7z"/></g></g>
</svg>